PathFileType	4	(X/Y/Z)	c:/Users/goper/Files/vsCode/490R/osim_files/C15/C15_Slow_01.trc
DataRate	CameraRate	NumFrames	NumMarkers	Units                	OrigDataRate	OrigDataStartFrame	OrigNumFrames
250.00	250.00	9	36	mm	250.0	1931	3089
                Frame#	Time	LPSIS			LASIS			LTH1			LTH2			LTH3			LTH4			LLFE			LMFE			LSH1			LSH2			LSH3			LSH4			LLMAL			LMMAL			LCAL			LMTP5			LTOE			LMTP1			RPSIS			RASIS			RTH1			RTH2			RTH3			RTH4			RLFE			RMFE			RSH1			RSH2			RSH3			RSH4			RLMAL			RMMAL			RCAL			RMTP1			RTOE			RMTP5		
		X1	Y1	Z1	X2	Y2	Z2	X3	Y3	Z3	X4	Y4	Z4	X5	Y5	Z5	X6	Y6	Z6	X7	Y7	Z7	X8	Y8	Z8	X9	Y9	Z9	X10	Y10	Z10	X11	Y11	Z11	X12	Y12	Z12	X13	Y13	Z13	X14	Y14	Z14	X15	Y15	Z15	X16	Y16	Z16	X17	Y17	Z17	X18	Y18	Z18	X19	Y19	Z19	X20	Y20	Z20	X21	Y21	Z21	X22	Y22	Z22	X23	Y23	Z23	X24	Y24	Z24	X25	Y25	Z25	X26	Y26	Z26	X27	Y27	Z27	X28	Y28	Z28	X29	Y29	Z29	X30	Y30	Z30	X31	Y31	Z31	X32	Y32	Z32	X33	Y33	Z33	X34	Y34	Z34	X35	Y35	Z35	X36	Y36	Z36

1931	7.72000	-741.26105	1014.29346	270.53333	-901.54700	993.34979	345.70294	-776.69775	609.07166	391.56955	-770.18817	563.38208	373.23840	-828.22650	610.56183	386.29413	-822.89648	566.06354	375.74445	-773.46881	484.68414	355.05917	-772.59528	472.80475	232.90083	-685.53503	393.37546	365.82919	-674.17877	350.21524	368.92172	-743.68335	372.99771	365.10693	-725.52496	331.65662	366.61740	-620.51538	94.66264	302.17624	-641.71112	117.40362	212.57237	-555.11230	72.76666	256.88586	-733.48602	37.98203	325.15326	-791.50916	58.04068	262.74356	-749.50488	31.97039	203.03076	-751.54553	1013.77130	149.03055	-913.11877	998.94727	98.46788	-951.94855	636.40277	24.29481	-969.15259	593.55042	31.99933	-1007.84308	654.87885	39.85921	-1018.08105	608.60803	41.01300	-1012.92297	510.93286	63.08070	-1003.55737	486.15784	178.73763	-961.43414	389.87045	42.68696	-975.13098	348.39783	37.45683	-1022.96362	402.28049	38.71521	-1026.05786	359.94263	32.89168	-1085.18542	98.80647	82.57976	-1113.34937	132.75868	166.72034	-1039.65283	56.19555	135.45517	-1240.29102	100.86281	159.09998	-1260.92407	129.81383	102.82249	-1212.46802	74.47541	46.78094
1932	7.72400	-745.01483	1013.78864	269.84500	-904.89423	993.01575	345.70554	-779.10187	609.01959	391.39203	-772.50604	563.34851	373.01035	-830.66199	610.30585	386.23715	-825.17114	565.82971	375.68518	-775.67291	484.50247	354.95682	-774.99664	472.58990	232.74855	-687.48706	393.49524	365.24023	-675.64209	350.55292	368.75687	-745.27972	373.02325	364.93076	-726.76514	331.73160	366.41962	-620.78021	95.16792	302.11584	-642.17023	117.75051	212.48137	-555.33801	73.39672	256.87228	-733.50305	37.98236	325.12131	-791.58289	58.03723	262.76437	-749.54248	31.98760	203.04913	-755.66394	1013.10883	148.39966	-917.38586	998.44763	98.37482	-954.94104	635.53467	23.88937	-971.85980	592.50433	31.52064	-1010.90100	653.82245	39.59623	-1020.95447	607.44635	40.59922	-1015.72296	509.93860	62.77328	-1006.14252	484.99503	178.63535	-966.14160	388.29758	42.34723	-980.46515	347.14734	37.12363	-1027.48547	401.66785	38.64581	-1031.12793	359.23038	32.86341	-1094.40417	99.14983	82.86681	-1121.42822	133.57742	167.12184	-1049.28503	55.60360	135.24821	-1248.89160	103.99620	160.41980	-1269.40540	133.24088	104.31211	-1222.47888	76.98765	47.95317
1933	7.72800	-748.68286	1013.26129	269.20996	-908.38562	992.65967	345.57587	-781.56958	608.89349	391.15540	-774.81458	563.23297	372.73230	-833.11084	610.04767	386.10312	-827.45197	565.53351	375.62006	-777.92712	484.31509	354.85413	-777.46436	472.34354	232.63162	-689.15503	393.79236	365.00003	-677.16089	350.91458	368.53247	-747.17175	372.88928	364.37555	-728.29260	331.75882	366.26892	-621.02423	95.68576	301.99277	-642.71765	118.19833	212.35912	-555.56110	74.13367	256.73334	-733.52448	37.97931	325.09277	-791.66943	58.02953	262.79630	-749.59277	31.97088	203.06601	-759.77112	1012.47009	147.75485	-921.65424	997.85950	98.23594	-958.16321	634.66309	23.47765	-974.96661	591.53119	31.03219	-1014.09827	652.74567	39.33520	-1024.05078	606.35992	40.23745	-1018.60333	508.88129	62.48884	-1008.86237	483.94363	178.54091	-970.81989	386.94394	42.12339	-985.69330	345.96945	36.90022	-1032.27600	400.97659	38.54146	-1036.16394	358.54089	32.85074	-1103.76392	99.24399	83.58504	-1129.29822	134.54121	167.76524	-1058.42981	55.13536	135.14087	-1257.14014	106.63039	161.49463	-1277.49963	136.58690	105.69337	-1231.95483	79.38692	49.15566
1934	7.73200	-752.37421	1012.73126	268.66422	-911.92841	992.14746	345.40945	-783.99567	608.72217	390.96130	-777.28888	564.89313	375.32678	-835.65308	609.76147	386.07816	-829.88654	565.20410	375.54770	-780.23260	484.12167	354.75119	-780.05042	472.03769	232.50162	-690.87860	394.04828	364.81186	-678.60559	351.23495	368.30725	-748.70392	372.85028	364.28073	-729.50732	331.83325	366.20282	-621.33362	96.23767	301.92386	-642.88855	118.67674	212.39217	-555.74963	74.93130	256.67535	-733.49884	37.96267	325.07550	-791.73346	58.00223	262.82349	-749.61890	31.99601	203.06433	-763.96838	1011.74487	147.10651	-925.97876	997.29767	98.11816	-961.43396	633.79822	23.12477	-978.19922	590.72321	30.54067	-1017.49976	651.75018	39.18462	-1027.18079	605.32361	40.01831	-1021.69025	507.83621	62.21619	-1011.70422	482.94672	178.46167	-975.50781	385.63412	41.86548	-990.92767	344.79587	36.74385	-1036.28101	400.39661	38.61987	-1041.03723	357.93335	32.83043	-1112.06995	99.64597	83.85427	-1136.29370	135.05750	168.01083	-1067.14612	54.74253	135.12238	-1264.80432	109.32506	162.90591	-1285.16040	139.53935	107.19609	-1240.95007	81.57365	50.33435
1935	7.73600	-756.14355	1012.18097	268.07144	-915.52185	991.74231	345.27863	-786.61047	608.57465	390.74155	-779.21588	563.83905	374.95602	-838.24225	609.37299	386.00031	-832.36896	564.87964	375.53699	-782.59045	483.92215	354.64801	-782.68298	471.70883	232.41003	-692.55109	394.26443	364.47635	-680.22076	351.57416	368.17325	-750.02234	372.95883	364.64047	-731.02148	331.87839	366.13882	-621.64972	96.78872	301.85709	-643.50378	118.91814	212.24490	-556.00665	75.61756	256.68414	-733.53345	37.93213	325.05774	-791.82025	58.00502	262.88049	-749.68982	32.01937	203.08298	-768.12732	1011.08313	146.49535	-930.24915	996.69092	97.96722	-965.01959	632.94086	22.84194	-981.70276	589.88232	30.17255	-1020.92120	650.80743	39.10105	-1030.59644	604.36432	39.83109	-1024.80481	506.84586	61.94453	-1014.59399	481.95868	178.42532	-980.18054	384.43805	41.72725	-996.03699	343.75717	36.70598	-1040.49316	400.08102	38.70401	-1045.85498	357.33151	32.92188	-1120.01306	100.00886	84.27038	-1143.66223	135.91743	168.92384	-1075.29260	54.41080	135.17628	-1271.96106	111.88688	164.35406	-1292.45557	142.19337	108.65906	-1249.42017	83.58216	51.53922
1936	7.74000	-760.03381	1011.50342	267.44006	-919.17456	991.24451	345.04575	-789.23932	608.74756	390.73740	-782.24475	562.70343	372.18097	-840.87012	609.01007	385.95264	-834.96533	564.44415	375.48129	-785.00183	483.71628	354.54465	-785.39404	471.40225	232.37042	-694.61444	394.55200	364.43869	-681.85321	351.86322	367.95792	-751.70740	372.92084	364.54977	-732.58337	331.85815	365.98010	-621.98523	97.33273	301.83694	-643.82770	119.47968	212.27271	-556.28503	76.36250	256.68338	-733.55267	37.91985	325.07147	-791.91125	57.98986	262.94318	-749.67175	32.05135	203.10196	-772.26489	1010.40875	145.90163	-934.53210	996.11792	97.83491	-968.69385	632.16589	22.54292	-985.04462	589.10004	29.98218	-1024.63086	649.87836	39.05772	-1034.28406	603.50989	39.69702	-1028.02319	505.88681	61.71344	-1017.68390	481.00705	178.37689	-984.76416	383.36676	41.55029	-1001.00153	342.84933	36.57742	-1045.37537	399.55441	38.73417	-1050.63708	356.82675	33.02654	-1127.52771	100.30753	84.71188	-1150.12781	136.48466	169.40886	-1083.07947	54.00634	135.32747	-1278.88477	113.95711	165.62270	-1299.22864	144.53253	110.11321	-1257.42334	85.31329	52.81466
1937	7.74400	-763.86511	1010.82355	266.80069	-922.93878	990.80347	344.87897	-791.97565	608.54608	390.49176	-784.90137	562.42249	371.97043	-843.65570	608.66443	385.91525	-837.56061	564.20984	375.47772	-787.46783	483.50385	354.44113	-788.16571	471.03088	232.32579	-696.54407	394.82635	364.26788	-683.60480	352.18073	367.83453	-753.45526	372.90790	364.45206	-734.14221	331.84286	365.96326	-622.33276	97.93497	301.82376	-644.39001	119.98178	212.22684	-556.55096	77.16656	256.67737	-733.61261	37.90171	325.08102	-792.02942	57.95840	263.02158	-749.72943	32.06782	203.14102	-776.42938	1009.69098	145.29555	-938.82367	995.58313	97.68992	-972.52240	631.50751	22.34165	-988.87500	588.33929	29.84611	-1028.43262	649.09210	39.10088	-1037.90564	602.72760	39.68289	-1031.53479	505.03931	61.56940	-1020.89355	480.11868	178.35115	-989.24615	382.41360	41.47668	-1005.95074	341.95901	36.56644	-1049.27234	399.05661	38.98493	-1055.32007	356.26035	33.19267	-1134.61243	100.46954	85.21098	-1156.23291	136.79066	169.77202	-1090.56201	53.71600	135.41705	-1285.34375	115.73826	166.92316	-1305.65649	146.49849	111.53507	-1264.86157	86.76778	54.03549
1938	7.74800	-767.75189	1010.20599	266.24725	-926.74121	990.31244	344.64807	-794.78510	608.31018	390.26730	-787.71625	562.15436	371.71530	-846.39679	608.32324	385.86264	-840.20349	563.82886	375.46384	-789.98962	483.28476	354.33752	-791.03870	470.59943	232.36075	-698.67633	395.00888	364.14972	-685.34509	352.52469	367.68115	-755.87213	372.68527	363.95755	-735.77966	331.91556	365.95581	-622.73053	98.50876	301.85483	-645.05066	120.32895	212.20868	-556.85254	78.04871	256.70950	-733.61926	37.86794	325.11758	-792.14893	57.92044	263.10086	-749.77081	32.10590	203.20056	-780.59729	1009.01691	144.73801	-943.09698	994.99182	97.48415	-976.38690	630.87280	22.15323	-992.79163	587.60986	29.71321	-1032.41333	648.43024	39.14264	-1041.71692	602.05609	39.73805	-1035.21582	504.29263	61.46337	-1024.17236	479.38547	178.35812	-993.81927	381.44214	41.44699	-1010.85181	341.20206	36.60996	-1053.68604	398.57657	39.19905	-1059.95984	355.71484	33.37404	-1141.19788	100.57201	85.73769	-1162.20264	137.27065	170.54865	-1097.19092	53.26279	135.83302	-1291.28479	117.47037	168.42657	-1311.80225	148.01181	113.01083	-1271.78857	87.92025	55.31305
1939	7.75200	-771.78162	1009.46497	265.63037	-930.47357	989.91406	344.47903	-797.68390	608.07751	390.02374	-790.54639	561.81641	371.50018	-849.22382	607.86743	385.74481	-843.03265	563.44348	375.43823	-792.56836	483.05878	354.23392	-793.88855	470.22415	232.37361	-700.32245	395.35275	363.91101	-687.29517	352.83054	367.58658	-757.36188	372.82156	364.41644	-737.62250	331.91354	365.84766	-623.10809	99.15413	301.91321	-645.55261	120.85999	212.23001	-557.16943	78.87998	256.76602	-733.68475	37.84700	325.12814	-792.26782	57.88753	263.17606	-749.82281	32.13645	203.23460	-784.81366	1008.30969	144.17172	-947.37006	994.38269	97.23344	-980.45953	630.24554	22.02962	-996.80402	586.99738	29.67349	-1036.39551	647.79510	39.14999	-1045.67249	601.42206	39.85344	-1038.88428	503.55402	61.41596	-1027.76074	478.69305	178.44084	-998.37744	380.61725	41.49293	-1015.43286	340.48853	36.66940	-1058.53870	398.09418	39.28971	-1064.49915	355.20212	33.60068	-1147.38440	100.56515	86.25948	-1167.63562	137.35524	170.99933	-1103.77075	52.84301	136.07750	-1296.87427	118.50825	169.57124	-1317.39221	149.25708	114.33203	-1278.24451	88.79441	56.52534
